<svg xmlns="http://www.w3.org/2000/svg" width="1596" height="912" fill="none" xmlns:v="https://vecta.io/nano"><path d="M677.963 321.515c-59.258-1.825-142.387 3.846-186.775 12.188-138.999 26.071-188.877 67.034-214.349 68.435-37.644 1.858-61.641.163-88.651 13.035-3.052.053-6.049-.856-8.595-2.607-14.21-11.21 1.757-55.758 1.757-81.014l2.415-199.081c18.822-9.972 37.801-37.02 76.95-68.077 2.29-1.857 20.296 6.094 27.919-3.976 5.646-7.43 2.321-23.985 3.137-26.071.878-14.404-6.274-27.863.878-28.547 49.345-4.758 55.525-4.856 83.036 14.143 3.827 2.64-2.008 30.828 2.854 33.012 0 0 27.951-2.183 47.933-2.9 6.996-3.715 2.698 30.274 13.458 25.288 7.372-3.422 27.762 1.564 43.917 0 4.235-.424 5.459 44.157 5.459 44.157 3.482 0 78.204-2.965 78.204-2.965s-6.87 23.235 34.067 17.662l7.121 20.889c.91 0 47.055-2.672 49.596-2.835 6.87-.423-2.071 11.308 12.171 13.035 0 0-4.36 10.168 7.592 7.365 29.111-6.778 4.391 7.463 22.899 6.681 26.727-1.141 17.536-3.259 44.263-4.074 3.357 0 1.537 2.021 3.576 7.039.973 2.412 3.89-.293 6.055 1.043s-.847 5.801 3.45 8.115c6.023 3.259 22.147-1.499 23.778.977.532-3.711.805-7.458.816-11.21.314.913 39.934-.456 39.934.652 0 20.465.188-2.477.188 17.988h10.132c-.721-.879 0 18.771 0 18.771l6.274 1.239.22 5.409 10.665.489c1.036 1.532 0 6.518 0 6.518l19.481.326c1.192-.359-1.976 38.714-1.506 43.179l19.23.652c.313 1.857-1.349 14.73 0 17.174l1.035 18.77-42.443 2.053-59.006 5.638-109.135 1.434z" fill="#f8ae2c"/><g fill="#6a8280"><path d="M292.618 22.648l-15.12 378.805-84.259 11.08c-1.913.261-11.889 4.041-11.889 2.021l3.137-254.188v-17.435l100.791-1.499v-6.257H184.393l70.08-57.127c3.137 0 7.027.456 7.497.456l22.837.945c.816 0 4.862.391 4.862-.489l-2.164-40.474c0-1.825-.565-15.284 1.192-15.284l3.921-.554zm46.051-6.387l-5.647 363.847-22.147 9.613-25.315 10.689 16.971-379.13 36.138-5.018zm227.712 307.991c.251 0 225.328-3.878 233.077-3.976h.407a164.53 164.53 0 0 1 18.822-2.379h4.172l11.388.945a2.22 2.22 0 0 0 .878-.325 19.01 19.01 0 0 1 2.447-1.174l29.613-1.694v-.522h18.821a2.25 2.25 0 0 0 1.62-.696 2.43 2.43 0 0 0 .67-1.682l-.376-30.242v-2.151l-17.159-.196c-1.286 0-3.451.261-3.451-1.075l1.286-39.562c0-.631-.241-1.236-.67-1.682a2.25 2.25 0 0 0-1.62-.697h-15.684c-.302.004-.602-.054-.882-.172a2.24 2.24 0 0 1-.747-.515 2.36 2.36 0 0 1-.496-.776c-.113-.291-.17-.602-.165-.916v-3.65a2.43 2.43 0 0 0-.671-1.682 2.25 2.25 0 0 0-1.619-.697h-8.094v-4.334l-8.062.554v-17.923c0-.155-.029-.307-.086-.449s-.14-.272-.245-.381-.229-.195-.366-.254-.284-.09-.432-.09h-5.835l-.345-15.251-.345-.358h-34.475c-1.537 0-2.729 0-2.729 1.759 0 1.349-.516 2.642-1.434 3.595s-2.162 1.489-3.46 1.489h-18.822-5.521c-.297.015-.595-.036-.872-.15a2.09 2.09 0 0 1-.735-.509c-.208-.222-.368-.487-.469-.778a2.28 2.28 0 0 1-.12-.909c0-1.173 0-2.379.157-3.259a1.58 1.58 0 0 0-.091-.64c-.074-.204-.189-.39-.338-.544s-.327-.274-.523-.351a1.41 1.41 0 0 0-.616-.094h-3.137c-.715.028-1.414-.231-1.951-.722s-.872-1.178-.935-1.918v-1.141c-.028-.44-.14-.87-.332-1.264s-.459-.743-.784-1.026-.704-.495-1.11-.622a3.02 3.02 0 0 0-1.256-.118l-49.533 4.334.502-7.528c.024-.23-.001-.463-.074-.682a1.59 1.59 0 0 0-.348-.583c-.156-.165-.346-.292-.555-.372a1.45 1.45 0 0 0-.654-.09l-27.574 2.574v-.586l-.722-9.255H646.06v-4.432h17.347l-.282-3.585c-.048-.617-.322-1.19-.766-1.603a2.27 2.27 0 0 0-1.618-.613l-57.375 2.444c-.585.02-1.156-.19-1.598-.589s-.723-.957-.786-1.562l-1.129-12.383c0-.787-.301-1.541-.837-2.097a2.8 2.8 0 0 0-2.018-.869l-15.685-1.108c-.303-.024-.598-.112-.867-.257a2.27 2.27 0 0 1-.701-.59c-1.13-1.369-2.008-1.858-2.416-3.259a13.7 13.7 0 0 0-1.443-2.802l-7.246-17.565c-.251-.554-11.764 6.257-8.219 8.244l-5.709.326-28.233 30.666-3.733-3.715 24.28-26.495-66.064 3.911c-.832 0-1.63-.343-2.219-.954a3.32 3.32 0 0 1-.918-2.305l-1.851-21.801a14.33 14.33 0 0 0-.91-3.259c-.687-1.562-1.473-3.076-2.353-4.53a32.86 32.86 0 0 0-1.945-3.65 7.17 7.17 0 0 0-1.348-1.434l-.283-.261c-2.711-2.268-5.963-3.732-9.411-4.237l-26.507-2.509a3.05 3.05 0 0 1-1.788-.565 3.25 3.25 0 0 1-1.161-1.521l-9.003-24.963-1.349-2.444-1.631 4.856c-.099.326-.302.607-.576.797s-.602.276-.93.246h-3.356c.047.346.047.697 0 1.043a3.34 3.34 0 0 1-.784 2.183l-34.162 40.54c-1.631 1.141-1.412 2.542-2.761 1.336-.341-.279-.623-.63-.827-1.028a3.35 3.35 0 0 1-.359-1.288c-.032-.45.025-.903.17-1.329a3.29 3.29 0 0 1 .671-1.145l31.37-40.312-37.142-.228c-.941 0-1.098 0-1.098-1.923V43.636c.028-2.967-.538-5.908-1.662-8.636-.606-1.81-1.473-3.513-2.572-5.051a22.81 22.81 0 0 0-5.114-5.703l-.219-.261-4.141-3.259-6.933-5.279-1.662.228-8.407 362.967 78.424-25.647h.313c13.458-2.738 23.433-7.821 28.704-8.864l38.71-8.897 21.958-4.595a73.37 73.37 0 0 0 8.596 0c6.274-1.01 21.488-5.833 29.707-6.061l22.178-.326zm47.306-148.113h1.317v-2.379h19.7v6.094h-15.245v10.852c-.009 1.588-.619 3.108-1.7 4.23s-2.544 1.758-4.072 1.766v-20.563zm-37.644-2.379v-21.052c1.248 0 2.445.515 3.327 1.432s1.378 2.16 1.378 3.456v22.258H563.15a5.79 5.79 0 0 1-4.15-1.806 6.25 6.25 0 0 1-1.716-4.321l18.759.033zM403.51 295.868v-5.214h34.193v-46.243h2.258l1.224 52.956-37.675-1.499zm37.455-104.282l-.188 5.051-30.209-4.628.188-2.607 26.1 2.119 2.76-40.149h2.228l-.879 40.214zm62.74.456a2.66 2.66 0 0 1-1.87-.878c-.487-.537-.751-1.252-.734-1.99l9.787.294v-20.14c.652.009 1.274.284 1.732.766s.715 1.131.715 1.808v20.401l-9.63-.261zm27.134 79.58l-.564 27.505v1.792a.71.71 0 0 1-.193.484.66.66 0 0 1-.214.148.63.63 0 0 1-.252.052h-14.775v24.93h-3.89v-28.091h1.255v-.619h14.022l.627-30.111c0-.064.022-.126.062-.174a.25.25 0 0 1 .158-.087c1.029.034 2.006.48 2.725 1.246a4.22 4.22 0 0 1 1.133 2.86l-.094.065zm16.03-41.778h-18.006v-2.411h14.211v-15.968h1.317a2.57 2.57 0 0 1 1.028.213 2.69 2.69 0 0 1 .869.609 2.8 2.8 0 0 1 .576.91 2.85 2.85 0 0 1 .193 1.07l-.188 15.577zm24.406 13.622c-1.045-.401-1.944-1.13-2.573-2.086l-55.022-86.945-19.324-3.259-2.635-.26v180.538l-3.45-1.01-1.318-179.919-88.023-8.408-5.741 180.506c-.065 1.786-.807 3.474-2.065 4.694s-2.928 1.876-4.648 1.823l6.023-187.74-3.733-.424.91-8.701 132.443 14.991-.91 8.701 9.975 16.457 41.126 69.347c.376.62 1.443 1.434.847 1.858-.613.116-1.242.105-1.851-.033l-.031-.13zm3.482 54.716c-.557-.096-1.055-.418-1.384-.894a2.28 2.28 0 0 1-.373-1.648l.188-1.336 15.685 2.704-2.823-18.444h.533c.766-.007 1.508.277 2.086.8s.952 1.246 1.051 2.035l2.478 16.294.251 1.727.314 1.955-18.006-3.193zm49.972 23.202h-5.961v-49.599c.783 0 1.558.16 2.281.472a5.96 5.96 0 0 1 1.934 1.342 6.23 6.23 0 0 1 1.292 2.008 6.4 6.4 0 0 1 .454 2.37v43.407zm16.657 1.597h-5.741v-46.829c1.517 0 2.973.624 4.049 1.735s1.684 2.62 1.692 4.196v40.898zm13.928-58.039h-73.248a4.22 4.22 0 0 1-3.039-1.308c-.806-.837-1.259-1.973-1.259-3.157h70.237L624.98 246.66c.454-.817 1.108-1.495 1.896-1.964s1.681-.714 2.589-.709a5.06 5.06 0 0 1 2.604.717l21.457 12.873c.61.351 1.145.826 1.573 1.398a5.46 5.46 0 0 1 .92 1.926c.178.7.22 1.43.12 2.147a5.5 5.5 0 0 1-.699 2.024l-.126-.13zm107.974-33.794a3.66 3.66 0 0 1 2.64 1.136c.7.727 1.093 1.713 1.093 2.742v14.143c0 .095-.036.186-.101.253a.34.34 0 0 1-.244.105h-12.955c-.448.001-.891-.092-1.304-.27a3.39 3.39 0 0 1-1.103-.772 3.52 3.52 0 0 1-.732-1.153 3.63 3.63 0 0 1-.249-1.357v-.651c0-.095.036-.187.101-.254a.34.34 0 0 1 .244-.105h12.548l.062-13.817zm-6.493-12.807v-20.629c1.657-.001 3.247.678 4.423 1.89 1.159 1.214 1.813 2.853 1.819 4.563v18.217h-21.958c-1.029-.009-2.014-.437-2.742-1.193s-1.14-1.779-1.148-2.848h19.606zm-65.594 18.868v-1.694h10.854v-1.662h4.141v-1.174h2.07v-26.07h1.349v31.122h-18.477a.63.63 0 0 1-.25-.04c-.079-.031-.152-.078-.214-.139a.66.66 0 0 1-.144-.216c-.034-.081-.051-.169-.051-.257l.722.13zm-3.827 70.195c-.832 0-1.63-.343-2.218-.954s-.919-1.44-.919-2.305v-1.694h22.868v-17.402c.712-.018 1.42.114 2.081.39s1.26.689 1.762 1.213a5.48 5.48 0 0 1 1.158 1.838 5.65 5.65 0 0 1 .364 2.164v16.913l-25.096-.163zm48.372-40.507l43.321-2.705.22 4.009-43.322 2.704-.219-4.008zm56.465 52.825h-4.988v-37.639h-22.241v39.106h-3.137v-39.106h-16.5v-3.259h44.074v1.564h2.855l-.063 39.334zm16.72-70.064h-2.572v-15.675c.682 0 1.336.281 1.819.783s.753 1.18.753 1.889v13.003zm16.846 2.346h.157 18.821v-20.791c.499 0 .992.102 1.453.3a3.79 3.79 0 0 1 1.231.855c.353.366.632.801.823 1.279a4.07 4.07 0 0 1 .289 1.509v21.248c0 .021-.004.042-.012.062s-.019.038-.034.053a.15.15 0 0 1-.051.035c-.019.008-.039.013-.06.013h-19.857a3.08 3.08 0 0 1-2.218-.955c-.588-.611-.919-1.44-.919-2.304l.377-1.304zm23.747 52.923h-23.402c-.806.001-1.581-.319-2.165-.896s-.932-1.364-.972-2.2v-1.401h26.382l.157 4.497zm5.458-23.593h-16.155v-3.716h19.762a3.83 3.83 0 0 1-.294 1.485c-.195.469-.481.89-.84 1.239a3.54 3.54 0 0 1-1.247.787 3.46 3.46 0 0 1-1.446.205h.22zM279.851 402.367a2.39 2.39 0 0 1 0-.359c.011.119.011.239 0 .359z"/><path d="M254.379 78.048l-66.724 57.192h-3.262l69.986-57.192zm25.472 324.319a2.39 2.39 0 0 1 0-.359c.011.119.011.239 0 .359zm233.578-210.129l.032-1.173v1.173h-.032z"/><path d="M513.492 189.664l-.032 1.401v-1.401h.032zm198.915 112.787h-.094v4.953h.094v-4.953zm52.356-24.506h-3.2v1.01h3.2v-1.01z"/></g><path d="M848.332 256.403c.02 0 .041-.004.06-.012s.036-.02.051-.036a.18.18 0 0 0 .034-.052c.008-.02.012-.041.012-.063v.261h-3.796l3.639-.098z" fill="#f39200"/><path d="M767.147 249.299v.358h-.345a.34.34 0 0 0 .244-.105c.065-.067.101-.158.101-.253zm-75.821-12.221h-.313v.261h.313v-.261z" fill="#6a8280"/><g fill="#00473e"><path d="M707.074 295.64v6.029h-20.139v-21.867h5.489v15.838h14.65zm156.629-34.869v8.017h-16.595l-.533-2.379h7.811a2.77 2.77 0 0 0 1.996-.859 2.99 2.99 0 0 0 .827-2.074v-9.451c1.722 0 3.374.711 4.592 1.976a6.88 6.88 0 0 1 1.902 4.77zm-36.39-34.835h-6.179v8.049h6.179v-8.049zm-22.899 15.869h-13.175v3.291h13.175v-3.291z"/><path d="M793.842 238.513h-4.203v6.583h4.203v-6.583zm-36.389-2.671h-3.795v6.452h3.795v-6.452zm75.601 5.441h-5.05v10.558h5.05v-10.558zm-12.265 3.813h-3.106v17.858h3.106v-17.858zm9.756 16.033h-6.462v25.94h6.462v-25.94zm18.759 20.206v18.934h-4.612V288.83h-8.595v-7.495h13.207zm-234.331-74.759h3.764a2 2 0 0 1 1.442.621c.382.397.597.936.597 1.498v13.524c0 .631-.241 1.236-.671 1.682a2.25 2.25 0 0 1-1.619.697h-3.482v-17.924l-.031-.098zm-8.314 13.329l-3.795 2.151v-18.184h3.795v16.033zm38.899-13.034h-6.933v12.22h6.933v-12.22zm-207.824-26.983v9.581h-22.617v-28.971l6.023 4.888 1.254 14.502h15.34zm-3.294 98.775v11.829h-22.115v-2.705h-4.517v-32.066l7.309 2.476 1.725 20.466h17.598zm91.192 13.1h-18.477v5.344h18.477v-5.344z"/><path d="M511.892 294.793h-5.427l-1.161-22.192 5.082 1.759 1.506 20.433zm45.392-51.847h-5.082v19.878h5.082v-19.878zm-19.292-26.951h-5.616v9.483h5.616v-9.483zm178.775-22.616c1.739 0 3.407.718 4.636 1.995a6.95 6.95 0 0 1 1.92 4.816v81.959c0 1.807-.69 3.539-1.92 4.816a6.43 6.43 0 0 1-4.636 1.995v-95.581zm79.679 86.098h-5.208v38.357h5.208v-38.357z"/><path d="M796.07 279.802l-19.167-16.88 6.274-7.626c0 2.379 4.454 8.962 7.873 12.286 1.711 1.576 3.21 3.385 4.455 5.377 1.577 1.955 2.608 4.322 2.98 6.843h-2.415zm-22.838-2.02h-7.309v43.473h7.309v-43.473z"/><path d="M750.458 278.434h-7.937v42.821h7.937v-42.821zm49-58.951a6.18 6.18 0 0 1-.428 2.292c-.287.728-.709 1.389-1.243 1.946s-1.167 1-1.866 1.301a5.55 5.55 0 0 1-2.204.457h-10.446v39.628h-7.78v-45.624h23.967zM202.901 404.712l73.405-5.083 8.815-258.098-52.67.684c0 40.931 1.976 89.715 0 122.759-2.447 40.377-11.418 94.115-29.55 139.738zm86.047-272.437l-56.497 2.966 35.887-56.052h20.61v53.086zm61.766 243.108l-13.583-.586c-.533 0 1.506-1.173 1.537-1.727l8.627-356.156a1 1 0 0 1 .149-.52.95.95 0 0 1 .392-.358.91.91 0 0 1 .516-.085c.176.023.343.097.48.214l12.172 9.776a5.49 5.49 0 0 1 1.518 2.001c.349.781.516 1.636.489 2.497l5.176 338.428c-5.701 2.513-11.535 4.689-17.473 6.517zM434.44 64.754l-49.407 43.407c-1.287 1.12-2.81 1.907-4.446 2.298a10.25 10.25 0 0 1-4.965-.049l48.215-55.4 10.603 9.744zm24.123 75.148l-20.609-64.426 8.218.847 21.489 67.001-9.098-3.422zm44.89 4.465h-5.991v187.154h5.991V144.367zm69.641 98.578l-41.878-76.615-1.224 1.108-5.176-5.409 2.573-2.673 7.905-8.245 30.303-31.48 6.65 9.777-33.032 29.753 32.907 67.197c2.635 7.039 3.764 9.287.972 16.587z"/><path d="M535.293 151.112l-7.905 8.244-1.443-2.639 9.348-5.605zm64.246 30.991l-24.312-45.819 7.215-3.845 18.32 41.354c.602 1.357.808 2.869.59 4.346a7.76 7.76 0 0 1-1.813 3.964zm90.972 38.944l-.816 54.096c-.008.47-.194.917-.516 1.246s-.757.514-1.209.514h-10.007l-.879 16.815c.075 1.188-.18 2.372-.737 3.413a6.07 6.07 0 0 1-2.4 2.453l-2.101-29.329h2.101v-.848h8.847l1.411-46.275 6.306-2.085z"/></g><g fill="#1d1d1b"><path d="M1425.19 640.292c10.31-13.708 16.91-30.035 19.1-47.285 2.32-17.2 1.16-34.713-3.39-51.424a99.64 99.64 0 0 0-4.29-12.514 53.18 53.18 0 0 0-7.22-12.612c-.5-.554-.94-1.075-1.47-1.629-.54-.554-1.2-1.141-1.85-1.695a19.72 19.72 0 0 0-2.64-1.727 12.13 12.13 0 0 0-4.11-1.336 10.74 10.74 0 0 0-5.17.424 8.89 8.89 0 0 0-2.14.945c-.63.358-1.22.749-1.82 1.14-.81.708-1.58 1.459-2.32 2.249-.53.684-1.07 1.369-1.57 2.086a52.83 52.83 0 0 0-5.83 13.654 278.03 278.03 0 0 0-8.03 49.534c-1.31 16.398-1.67 32.863-1.07 49.306.25 8.245.72 16.294 1.41 24.637l.41 4.855-8.66 7.235c-.24.198-.41.464-.51.765-.09.3-.1.624-.02.929.05.212.14.412.27.587a1.55 1.55 0 0 0 .46.435 1.56 1.56 0 0 0 .59.218 1.52 1.52 0 0 0 .62-.034 48.93 48.93 0 0 0 7.94-2.835l1.41 12.286c.54 4.106 1.29 8.179 2.14 12.318.4 2.089.9 4.155 1.5 6.192.58 2.141 1.31 4.233 2.2 6.257.99 2.528 2.57 4.758 4.61 6.485 1.38 1.052 3.03 1.663 4.74 1.76 1.58.066 3.16-.258 4.61-.946 2.23-1.099 4.29-2.563 6.08-4.334 1.66-1.564 3.14-3.259 4.61-4.823.36-.427.67-.898.91-1.401.42-.652.7-1.39.82-2.163a5.67 5.67 0 0 0-.13-2.319 5.59 5.59 0 0 0-1.03-2.057 5.39 5.39 0 0 0-1.77-1.426c-.68-.339-1.42-.522-2.17-.538s-1.5.137-2.19.447a5.16 5.16 0 0 0-1.82 1.351c-.51.58-.89 1.266-1.12 2.012-1.26 3.07-3.22 5.776-5.71 7.886-1.03.62-1.03.62-1.72.326a7.33 7.33 0 0 1-2.48-3.258c-1.52-3.404-2.58-7.013-3.14-10.722-.65-3.883-1.11-7.799-1.38-11.732-.41-5.312-.56-10.656-.56-16 1.82-1.141 3.57-2.412 5.3-3.748 6.56-5.127 12.47-11.094 17.6-17.761zm-22.59 10.592c.22-7.04.72-14.079 1.32-21.085 1.35-15.936 3.61-31.839 5.61-47.709l3.36-23.594c1.11-7.627 2.65-15.179 4.61-22.616a70.24 70.24 0 0 1 1.35-4.302c.94 1.57 1.8 3.191 2.57 4.856a81.98 81.98 0 0 1 3.92 10.2c4.6 14.428 6.47 29.644 5.49 44.809-.86 15.21-5.65 29.899-13.86 42.527-4.11 6.228-8.93 11.908-14.37 16.914zm-674.101-112.56c-7.474-2.202-15.194-3.375-22.962-3.487-6.97.108-13.897 1.149-20.61 3.096-6.329 2.055-12.302 5.146-17.693 9.157-5.012 3.533-9.396 7.944-12.955 13.035-1.387 2.189-2.445 4.585-3.137 7.104a52.94 52.94 0 0 0-1.13 6.062 35.27 35.27 0 0 0-.251 3.617c.02 1.99.47 3.951 1.318 5.736 1.831 3.548 4.098 6.835 6.745 9.776 2.748 3.066 5.82 5.799 9.159 8.147 3.398 2.287 6.953 4.313 10.635 6.062 3.67 1.824 7.466 3.258 11.324 4.79s8.313 2.9 12.548 4.497a113.59 113.59 0 0 1 24.845 12.351 41.11 41.11 0 0 1 6.274 5.182c2.07 1.969 3.941 4.153 5.584 6.517 4.084 5.874 6.359 12.896 6.524 20.14.058 6.277-1.296 12.481-3.952 18.119a72.24 72.24 0 0 1-8.25 13.817c-3.439 4.267-7.479 7.97-11.984 10.982-4.312 2.823-8.977 5.016-13.865 6.518-8.875 2.502-18.078 3.514-27.26 2.998-8.684-.376-17.311-1.642-25.755-3.78-8.977-1.917-17.504-5.648-25.095-10.982-.973-.717-1.883-1.499-2.792-2.282a29.36 29.36 0 0 1-2.886-2.835 32.28 32.28 0 0 1-4.737-6.811c-2.359-4.284-3.773-9.059-4.141-13.98-.184-2.487.53-4.957 2.003-6.927s3.6-3.299 5.965-3.729c2.231-.323 4.5.197 6.394 1.465s3.287 3.199 3.927 5.443c1.035 3.846 1.38 6.811 2.258 9.777a29.12 29.12 0 0 0 1.6 4.106 19.06 19.06 0 0 0 1.129 2.02c.534.75 1.036 1.532 1.6 2.249 4.35 6.369 10.31 11.365 17.222 14.437 7.278 2.993 15.177 3.981 22.931 2.867 7.477-.943 14.529-4.125 20.297-9.157 5.049-4.371 8.775-10.165 10.728-16.685 1.509-4.766 2.127-9.788 1.819-14.795a42.39 42.39 0 0 0-1.098-5.996c-.313-1.076-.909-2.444-1.505-3.911a28.26 28.26 0 0 0-2.259-4.204c-3.98-6.906-8.603-13.389-13.803-19.357a65.28 65.28 0 0 0-8.909-8.212c-3.45-2.444-6.964-4.823-10.508-7.137a187.87 187.87 0 0 0-21.959-12.807c-4.191-1.958-8.247-4.211-12.14-6.746-2.33-1.546-4.442-3.421-6.274-5.573-1.097-1.359-2.053-2.833-2.855-4.399-.747-1.248-1.397-2.556-1.945-3.911-2.338-5.618-3.172-11.788-2.415-17.858.779-5.875 2.586-11.552 5.333-16.75 5.088-9.515 12.584-17.403 21.676-22.812 8.577-5.196 18.154-8.356 28.045-9.255 9.587-1.355 19.348-.236 28.42 3.259 8.833 3.503 16.286 9.972 21.175 18.38.583.896.988 1.904 1.192 2.965 0 .456-1.38 0-3.137-.358l-.408.065zm86.894 91.02l-.282.228c-7.932 6.032-17.2 9.888-26.947 11.211-7.787 1.085-15.708.395-23.213-2.021v2.672c-.471 13.231-1.6 27.733-.816 41.29l.659 10.2a50.83 50.83 0 0 0 1.318 9.776 7.82 7.82 0 0 0 1.819 3.487 2.35 2.35 0 0 0 1.221.626 2.3 2.3 0 0 0 1.351-.17c2.165-.749 3.482-3.682 4.894-6.322s4.549-2.248 6.494-1.14 3.136 2.9 1.913 4.92a21.23 21.23 0 0 1-1.882 2.445c-2.527 3.043-5.961 5.119-9.756 5.898-2.872.405-5.786-.303-8.187-1.988-1.501-1.779-2.575-3.9-3.137-6.192-1.036-4.464-1.161-7.039-1.694-10.493-.408-2.542-.502-7.691-.691-10.265-1.003-13.72-1.16-27.994-1.694-42.039a92.63 92.63 0 0 1 .22-10.656c.188-3.487.533-6.974.91-10.429.761-6.963 1.871-13.881 3.325-20.726a222.42 222.42 0 0 1 12.548-40.148c.778-1.837 2.226-3.277 4.026-4.005a7.03 7.03 0 0 1 5.573.127c1.768.808 3.154 2.313 3.854 4.183s.657 3.952-.121 5.789l-.282.554c-6.083 11.605-11.012 23.824-14.713 36.466-1.854 6.353-3.383 12.804-4.58 19.325-.596 3.259-1.129 6.517-1.568 9.548a55.13 55.13 0 0 0 20.578-1.043c7.744-1.995 14.959-5.77 21.112-11.047.616-.642 1.354-1.142 2.167-1.471s1.683-.477 2.555-.436a6.1 6.1 0 0 1 2.506.672c.782.403 1.474.971 2.032 1.667a6.62 6.62 0 0 1 1.212 2.376c.241.871.303 1.785.184 2.683a6.66 6.66 0 0 1-.874 2.531c-.457.772-1.064 1.436-1.783 1.95l-.251-.033zm77.703 26.298c-.798-1.67-2.195-2.948-3.891-3.558s-3.555-.502-5.175.299c-5.992 2.933-11.356 6.094-16.657 8.473l-1.569.684c-1.385-4.516-3.783-8.626-6.995-11.992-4.895-5.167-11.504-8.197-18.477-8.473-7.112-.072-13.997 2.599-19.324 7.495-2.723 2.373-5.018 5.231-6.776 8.441-.977 1.739-1.706 3.616-2.164 5.572a16.22 16.22 0 0 0-.377 4.204 67.75 67.75 0 0 0 0 15.317c.63 5.816 2.289 11.462 4.894 16.652a29.83 29.83 0 0 0 5.647 7.724c2.711 2.643 6.098 4.419 9.756 5.116 6.873.664 13.719-1.527 19.041-6.094h.188c.307-.232.6-.482.879-.75a7.64 7.64 0 0 0 1.752-2.474c.417-.94.647-1.957.676-2.991a7.94 7.94 0 0 0-.511-3.027c-.365-.962-.914-1.838-1.614-2.574s-1.537-1.317-2.459-1.708a7.13 7.13 0 0 0-2.906-.566 7.14 7.14 0 0 0-2.887.665c-.91.422-1.727 1.031-2.403 1.791-2.145 2.429-5.021 4.026-8.157 4.53a10.42 10.42 0 0 1-4.302-1.904c-1.281-.958-2.34-2.2-3.101-3.636a38.03 38.03 0 0 1-5.082-12.384l-.627-3.031 2.008.75a38.56 38.56 0 0 0 10.477 1.597 88 88 0 0 0 19.763-1.89c3.137-.62 6.274-1.369 9.411-2.184l4.674-1.271c1.6-.423 3.294-.977 4.862-1.564 6.274-2.314 12.078-5.214 17.567-7.397l.471-.196c.846-.385 1.608-.945 2.24-1.644s1.121-1.526 1.438-2.427.454-1.86.404-2.818a7.33 7.33 0 0 0-.694-2.757zm-34.036 8.245c-2.886.945-5.772 1.89-8.658 2.639a79.95 79.95 0 0 1-17.348 2.999 31.06 31.06 0 0 1-8.093-.587 13.58 13.58 0 0 1-3.137-1.238 4.24 4.24 0 0 1-1.663-1.369 3.65 3.65 0 0 1 0-2.151 13.98 13.98 0 0 1 1.098-3.552 23.72 23.72 0 0 1 4.737-6.746c3.851-4.257 9.168-6.756 14.788-6.952s11.085 1.93 15.201 5.909c2.936 2.668 5.226 6.018 6.682 9.777l-3.607 1.271zm253-8.083c-.79-1.676-2.19-2.959-3.89-3.57a6.58 6.58 0 0 0-5.18.312c-5.96 2.933-11.32 6.126-16.63 8.473l-1.6.684a30.3 30.3 0 0 0-6.99-11.96c-4.87-5.19-11.47-8.236-18.45-8.505-7.11-.073-13.99 2.598-19.32 7.495-2.73 2.392-5.03 5.26-6.81 8.473-.95 1.735-1.67 3.6-2.13 5.54-.28 1.228-.4 2.487-.38 3.747a70.5 70.5 0 0 0 0 15.773 48.46 48.46 0 0 0 4.9 16.685 29.6 29.6 0 0 0 5.64 7.691c2.71 2.654 6.1 4.432 9.76 5.116 6.87.677 13.72-1.502 19.04-6.061h.19c.31-.233.61-.495.88-.782 1.42-1.435 2.24-3.398 2.27-5.458.02-2.059-.73-4.046-2.12-5.524-1.38-1.478-3.27-2.326-5.25-2.356s-3.89.758-5.32 2.193c-2.13 2.447-5.01 4.058-8.15 4.562-1.55-.312-3.01-.972-4.29-1.935a11.21 11.21 0 0 1-3.09-3.638 38.27 38.27 0 0 1-5.08-12.35l-.62-3.064 2 .75c3.41 1.023 6.93 1.571 10.48 1.629 6.64.091 13.26-.553 19.76-1.923 3.14-.586 6.28-1.368 9.41-2.15l4.68-1.271c1.6-.457 3.14-1.011 4.86-1.565 6.27-2.346 12.08-5.214 17.57-7.43l.47-.195a6.74 6.74 0 0 0 2.16-1.611c.62-.68 1.09-1.479 1.41-2.351a7.45 7.45 0 0 0 .43-2.731 7.33 7.33 0 0 0-.61-2.693zm-34.04 8.213c-2.89.977-5.77 1.89-8.66 2.639a78.03 78.03 0 0 1-17.35 2.998 29.67 29.67 0 0 1-8.09-.586 13.19 13.19 0 0 1-3.14-1.206c-.66-.298-1.24-.783-1.66-1.401a3.59 3.59 0 0 1 0-2.151 13.08 13.08 0 0 1 1.1-3.52c1.18-2.532 2.78-4.826 4.74-6.778 3.86-4.089 9.05-6.549 14.55-6.909 5.67-.185 11.19 1.917 15.4 5.866 2.97 2.652 5.27 6.005 6.72 9.777l-3.61 1.271zm-159.264-61.07l.69 7.56c.318 2.474.158 4.989-.47 7.398-.628 1.591-1.749 2.919-3.185 3.774s-3.107 1.187-4.746.943-3.153-1.047-4.302-2.286a7.85 7.85 0 0 1-2.04-4.55 19.3 19.3 0 0 1 1.568-7.234l2.667-7.072c.467-1.051 1.248-1.917 2.228-2.47a5.01 5.01 0 0 1 3.207-.597c1.103.165 2.125.695 2.915 1.512a5.45 5.45 0 0 1 1.468 3.022zm-5.05 45.656v3.519l.188 3.878.47 7.789c.377 5.214.91 10.363 1.6 15.447l.565 3.78.313 1.857a5.73 5.73 0 0 1 .283.978 7.85 7.85 0 0 0 2.258 3.259c1.287 1.157 2.736 2.102 4.298 2.802.878.489 1.819.88 2.855 1.369s2.007.88 3.827 1.89c1.619.894 2.876 2.363 3.542 4.138s.694 3.74.082 5.537-1.824 3.304-3.416 4.25a7.41 7.41 0 0 1-5.259.903l-1.662-.359c-1.066-.329-2.114-.721-3.137-1.173a38.1 38.1 0 0 1-4.047-1.988c-2.99-1.706-5.692-3.907-7.999-6.517-2.608-2.993-4.357-6.685-5.051-10.657 0-.977-.251-1.955-.345-2.933v-2.085-4.139c0-5.507.439-10.917.91-16.294l.878-8.082.565-4.041c.251-1.434.408-2.574.784-4.399.171-.966.686-1.83 1.442-2.42a3.66 3.66 0 0 1 2.638-.764c.941.099 1.811.561 2.439 1.296a4 4 0 0 1 .947 2.67l.032.489zm94.424 60.387a4.6 4.6 0 0 1-.87 1.516c-.38.441-.84.799-1.36 1.054a4.25 4.25 0 0 1-1.65.429 4.14 4.14 0 0 1-1.67-.262 4.17 4.17 0 0 1-1.56-.994 4.47 4.47 0 0 1-1.02-1.58c-2.789-7.43-4.483-14.535-6.271-21.28l-2.917-9.777-3.137-8.505c-.76-2.453-1.814-4.796-3.137-6.974-.657-1.008-1.572-1.805-2.642-2.3a6.06 6.06 0 0 0-3.412-.503c-3.105.834-5.914 2.576-8.094 5.019-1.006 1.033-1.958 2.121-2.854 3.258l-6.557 28.906c-.096.419-.349.78-.701 1.006a1.52 1.52 0 0 1-1.181.2c-.362-.091-.682-.309-.905-.619s-.336-.689-.318-1.076l2.102-35.847a4.86 4.86 0 0 1 .452-1.787c.262-.559.628-1.059 1.077-1.471s.972-.727 1.538-.929 1.166-.284 1.764-.245a4.34 4.34 0 0 1 2.218.757c.662.452 1.196 1.08 1.546 1.818 1.835-2.628 4.16-4.845 6.838-6.518 2.219-1.332 4.672-2.185 7.215-2.509a19.51 19.51 0 0 1 8 .88c4.866 1.717 9.149 4.864 12.326 9.059 2.72 3.692 4.73 7.898 5.9 12.384 3.41 12.087 3.19 24.968-.63 36.922l-.09-.032z"/><path d="M1592.86 711.042c-.31.863-.86 1.608-1.59 2.135a4.2 4.2 0 0 1-2.47.808 4.23 4.23 0 0 1-2.48-.808c-.73-.527-1.28-1.272-1.59-2.135-2.79-7.43-4.48-14.567-6.27-21.28l-2.92-9.776-3.13-8.506c-.73-2.468-1.78-4.816-3.14-6.974-.64-1.028-1.55-1.84-2.63-2.338-1.07-.498-2.26-.659-3.43-.464-3.08.833-5.88 2.563-8.06 4.986a41.14 41.14 0 0 0-2.85 3.258l-6.56 28.939c-.05.21-.13.409-.26.584-.12.175-.27.323-.45.435a1.56 1.56 0 0 1-.58.219c-.21.032-.42.021-.62-.033-.36-.078-.68-.29-.9-.596s-.33-.685-.29-1.066l2.07-36.01c.06-1.035.44-2.021 1.1-2.806.65-.785 1.53-1.325 2.51-1.536s2-.083 2.9.367a4.61 4.61 0 0 1 2.08 2.118c1.83-2.646 4.17-4.865 6.87-6.518 2.22-1.338 4.67-2.192 7.22-2.509 2.69-.28 5.42.019 8 .88 4.91 1.782 9.2 5.065 12.29 9.418 2.72 3.679 4.73 7.874 5.9 12.351a62.28 62.28 0 0 1 2.23 12.579 61.63 61.63 0 0 1-2.95 24.278zm-416.43-41.322c-1.16 1.282-2.68 2.156-4.33 2.501a7.88 7.88 0 0 1-4.93-.578l-.34-.195c-2.45-1.174-4.65-2.64-6.84-3.944-2.05-1.242-4.23-2.237-6.49-2.965a9.82 9.82 0 0 0-4.99-.489c-.61.124-1.16.43-1.6.88-.66.771-1.17 1.667-1.51 2.64-1.74 5.831-2.79 11.86-3.14 17.956a64.21 64.21 0 0 0 .95 18.51c.2.953.2 1.941 0 2.896a6.81 6.81 0 0 1-1.16 2.632c-.57.78-1.29 1.423-2.12 1.884a6.29 6.29 0 0 1-2.68.786 6.23 6.23 0 0 1-2.75-.454c-.88-.357-1.67-.907-2.32-1.612s-1.15-1.549-1.45-2.473c-.31-.924-.42-1.905-.32-2.877l1.97-20.172c.44-3.259.66-6.518 1.04-9.777.22-1.955.38-3.943.69-6.029-2.2-1.27-4.33-2.672-6.28-4.138-3.45-2.22-6.61-4.892-9.41-7.952a1.81 1.81 0 0 1 0-2.476c.18-.16.39-.279.62-.352a1.71 1.71 0 0 1 .7-.072 46.73 46.73 0 0 1 11.58 3.454c1.69.717 3.38 1.467 5.05 2.281l.69-1.336c1.23-2.369 3.01-4.385 5.17-5.865 2.06-1.335 4.35-2.242 6.75-2.673a24.16 24.16 0 0 1 6.43-.358 36.47 36.47 0 0 1 11.23 2.737 28.69 28.69 0 0 1 9.25 5.703c.8.744 1.44 1.644 1.9 2.648.45 1.004.71 2.092.76 3.2a8.6 8.6 0 0 1-.48 3.261 8.42 8.42 0 0 1-1.64 2.818zm57.09-31.871c-1.09 3.803-2.9 7.338-5.33 10.396-2.56 3.157-5.78 5.665-9.41 7.332-3.12 1.346-6.39 2.255-9.73 2.705a64.66 64.66 0 0 0-6.99 1.303c-1.01.26-1.96.69-2.83 1.271a13.36 13.36 0 0 0-2.7 2.477c-1.59 1.965-2.67 4.321-3.13 6.844-.91 5.246 1.82 7.202 6.84 6.028 3.09-.648 6.25-.9 9.41-.749 1.76.142 3.5.448 5.2.912 2.01.577 3.89 1.563 5.53 2.901a14.79 14.79 0 0 1 4.06 5.367c.94 2.092 1.39 4.383 1.33 6.69-.04 4.32-1.5 8.495-4.14 11.83-.65.821-1.37 1.574-2.16 2.248-.74.654-1.54 1.233-2.39 1.727-1.46.955-3.02 1.752-4.64 2.379-4.5 1.726-9.28 2.492-14.07 2.251-4.78-.241-9.47-1.483-13.79-3.652-.19-.1-.35-.237-.49-.405s-.24-.361-.3-.57a1.58 1.58 0 0 1-.07-.648 1.69 1.69 0 0 1 .17-.625c.14-.28.35-.513.61-.674.27-.162.56-.244.87-.239 5.38.133 10.75-.626 15.9-2.248a32.78 32.78 0 0 0 6.84-2.966 29.63 29.63 0 0 0 2.89-1.988 6.37 6.37 0 0 0 1.09-.912c.28-.311.54-.638.79-.978.99-1.345 1.57-2.969 1.66-4.66.05-1.398-.35-2.773-1.13-3.911-.52-.651-1.16-1.193-1.88-1.597-1.01-.476-2.06-.848-3.14-1.107-2.54-.51-5.13-.685-7.71-.522-1.78.026-3.55-.171-5.27-.586-2-.582-3.81-1.707-5.24-3.259-1.46-1.546-2.45-3.509-2.83-5.638a18.59 18.59 0 0 1 0-5.573 37.92 37.92 0 0 1 3.14-9.776c.7-1.616 1.54-3.165 2.51-4.628 1.07-1.615 2.36-3.063 3.83-4.301a28.07 28.07 0 0 1 9.13-4.823c2.3-.701 4.51-1.697 6.58-2.966 3.15-2.208 5.38-5.555 6.28-9.385.64-1.926 1.97-3.521 3.71-4.457a7.4 7.4 0 0 1 5.65-.572c1.89.569 3.49 1.868 4.48 3.628a8.22 8.22 0 0 1 .84 5.833l.03.293zm236.56 134.035c-.01.098-.05.192-.11.267a.48.48 0 0 1-.24.156 583.95 583.95 0 0 1-60.85 9.321c-10.5 1.149-21.07 1.335-31.59.553a75.29 75.29 0 0 1-8.13-1.238c-2.6-.521-5.24-1.238-7.93-2.02-5.34-1.657-10.51-3.84-15.44-6.518-9.95-5.308-18.69-12.79-25.6-21.932-6.74-8.964-11.71-19.217-14.65-30.176-1.11-4.838-2.7-9.544-4.73-14.046-2.22-4.242-5.2-8.003-8.79-11.08-5.07-4.581-10.69-8.469-16.72-11.569a33.74 33.74 0 0 1-9.03-4.138c4.38-.378 8.71-1.163 12.95-2.347 3.4-.762 6.49-2.567 8.88-5.181 2.7-3.259 1.35-11.243-1.72-15.056a11.16 11.16 0 0 0-5.62-3.845c-.34 0-.63-.229-.97-.294l-.85-.228c-.42-.107-.85-.162-1.28-.163-1.47.033-2.94.229-4.36.587-3.54.844-6.97 2.067-10.26 3.65-2.01.95-3.96 2.038-5.84 3.259l-.72 6.517c-.97 7.669-1.23 15.418-.75 23.138.09 3.162 1.11 6.219 2.92 8.766a6.93 6.93 0 0 0 3.13 2.038 6.71 6.71 0 0 0 3.7.08c1.43-.289 2.9.02 4.11.86 1.2.841 2.03 2.143 2.31 3.621s-.02 3.01-.83 4.26-2.06 2.115-3.48 2.404a4.36 4.36 0 0 1-1.29 0h-.6a19.5 19.5 0 0 1-7.75-1.916c-2.43-1.17-4.62-2.834-6.42-4.895-1.64-2.025-2.96-4.301-3.93-6.745-.82-2.209-1.46-4.488-1.91-6.811a128.42 128.42 0 0 1-1.57-25.614l1.07-48.883-.25-24.115-.44-12.188a106.53 106.53 0 0 1 .53-13.72c.98-9.388 3.37-18.559 7.09-27.178 1.64-4.446 3.85-8.644 6.56-12.481 1.62-2.032 3.67-3.659 5.98-4.758a16.47 16.47 0 0 1 7.38-1.597c2.3.032 4.52.921 6.25 2.505 1.72 1.585 2.85 3.76 3.16 6.131v.945c.78 4.219.19 8.588-1.69 12.416-1.48 3.063-4.05 5.377-5.55 8.408-3.34 5.969-5.74 12.447-7.13 19.194a82.5 82.5 0 0 0-1.47 10.624l-.85 12.253c-.66 8.245-1.44 16.49-2.38 24.669l-2.89 23.236c2.53-1.991 5.3-3.644 8.22-4.921a30.1 30.1 0 0 1 8.5-2.444 23.96 23.96 0 0 1 5.3 0c.82.11 1.62.262 2.42.456l2.2.587c3.1.927 6.01 2.441 8.59 4.464a27.43 27.43 0 0 1 6.59 7.658c3.1 5.565 4.37 12.031 3.61 18.413-.34 3.208-1.24 6.324-2.67 9.189-1.57 3.066-3.9 5.642-6.74 7.463-2.73 1.734-5.8 2.793-8.98 3.096a60.73 60.73 0 0 1 9.23 4.986c2.3 1.525 4.49 3.224 6.55 5.084 2.12 1.992 4 4.234 5.62 6.68a74.11 74.11 0 0 1 7.15 15.154c6.81 18.38 20.12 33.368 37.2 41.908a70 70 0 0 0 13.05 4.954 135.83 135.83 0 0 0 6.94 1.727c2.38.521 4.61 1.043 6.96 1.466a248.58 248.58 0 0 0 29.46 3.259c20.14 1.108 40.59 1.01 61.07 1.173.06.012.11.035.16.067a.51.51 0 0 1 .11.124c.03.049.05.103.06.16 0 .057 0 .115-.01.171zm-127.96-105.715c-2.68 2.582-4.66 5.853-5.74 9.483-1.01 3.195-.9 6.658.31 9.776 1.25 2.685 3.41 4.797 6.06 5.931a18.2 18.2 0 0 0 9.06 1.825 6.96 6.96 0 0 0 2.95-.587c1.37-.829 2.46-2.067 3.14-3.552 2.15-4.128 3.14-8.805 2.85-13.491-.44-10.272-4.18-20.094-10.63-27.896a7.09 7.09 0 0 1-1.32-2.412c-.29-.887-.4-1.823-.34-2.755a7.5 7.5 0 0 1 .71-2.677 7.04 7.04 0 0 1 1.64-2.193 6.81 6.81 0 0 1 2.32-1.374 6.63 6.63 0 0 1 2.65-.346 6.64 6.64 0 0 1 2.58.734c.81.418 1.52.997 2.11 1.703.76.94 1.29 2.059 1.54 3.259 2.2 11.373 5.49 21.671 7.15 32.979a61.62 61.62 0 0 1 .79 18.184c-.45 3.774-1.82 7.366-3.99 10.429-.61.895-1.32 1.705-2.13 2.411-.77.805-1.62 1.516-2.54 2.118-1.71 1.165-3.59 2.055-5.55 2.64-6.97 2.016-14.41 1.285-20.9-2.053-3.3-1.634-6.27-3.913-8.75-6.713-2.55-2.919-4.48-6.36-5.68-10.103a32.63 32.63 0 0 1 .79-21.605c2.48-6.437 6.88-11.882 12.55-15.545 1.46-1.003 3.24-1.396 4.97-1.101s3.3 1.256 4.38 2.692 1.6 3.243 1.46 5.061-.93 3.515-2.22 4.754l-.22.424zm181.38 26.33c-5.79-4.121-10.45-9.736-13.52-16.294-1.39-3.267-2.33-6.723-2.79-10.265a130.42 130.42 0 0 1-.69-12.807 38.27 38.27 0 0 0-.47-4.66c-.37-2.588-1.32-5.047-2.79-7.17-1.05-1.457-2.38-2.677-3.89-3.584-1.43-.817-2.98-1.358-4.58-1.597-2.23-.284-4.48-.084-6.62.586-2.87.879-5.59 2.209-8.07 3.944-2.11 1.459-4.13 3.059-6.05 4.79-7.02 6.631-13.1 14.255-18.07 22.649-2.55 4.208-4.72 8.66-6.46 13.296-.87 2.512-1.49 5.111-1.85 7.756-.43 3.079-.01 6.223 1.22 9.059 1.41 2.822 3.6 5.146 6.28 6.681 6.69 4.003 14.23 6.241 21.95 6.517a24.81 24.81 0 0 0 8.38-1.336c1.54-.557 3-1.312 4.36-2.248a25.51 25.51 0 0 0 3.73-3.259c2.25-2.391 3.97-5.26 5.05-8.408v-.358c3.86 5.235 8.55 9.743 13.87 13.328a9.41 9.41 0 0 0 7.1 1.215c2.43-.553 4.56-2.052 5.96-4.189s1.96-4.749 1.56-7.299-1.73-4.845-3.7-6.412l.09.065zm-35.57-32.881c-.6 8.962-.63 18.119-1.82 26.07-.23 3.04-1.22 5.963-2.89 8.473a9.99 9.99 0 0 1-2.82 2.151 18.43 18.43 0 0 1-4.49 1.532 34.75 34.75 0 0 1-11.38.88c-1.85-.177-3.66-.649-5.37-1.402-1.32-.442-2.43-1.37-3.14-2.607-.7-3.351-.13-6.855 1.6-9.776 1.81-3.756 4.1-7.242 6.81-10.363a86.44 86.44 0 0 1 18.67-16.587c1.57-1.075 3.21-2.022 4.92-2.836l.31-.163c.07.978-.37 3.911-.4 4.628zM353.632 631.527c-7.498-4.158-14.728-8.817-21.645-13.948.753-10.819 1.349-21.671 1.506-32.588.167-9.125.021-18.315-.44-27.57-.25-4.627-.596-9.287-1.192-14.013a80.11 80.11 0 0 0-3.137-14.534 27.9 27.9 0 0 0-3.858-8.017c-1.195-1.701-2.71-3.131-4.454-4.204-2.205-1.318-4.743-1.909-7.278-1.694-3.757.44-7.282 2.106-10.07 4.758-2.119 1.947-4.024 4.133-5.678 6.517-5.734 8.509-9.668 18.183-11.544 28.385a71.03 71.03 0 0 0 .533 30.958 62.24 62.24 0 0 0 5.741 14.665c2.536 4.682 5.705 8.962 9.411 12.709 6.629 6.513 14.462 11.557 23.025 14.828a225.03 225.03 0 0 1-.282 11.243c-.376 9.027-.972 18.021-1.914 26.983a135.88 135.88 0 0 1-1.694 13.035 27.34 27.34 0 0 1-5.113 10.917c-2.196 2.789-5.08 4.907-8.344 6.127a17.84 17.84 0 0 1-4.298.847 7.27 7.27 0 0 1-3.827-.489 10.06 10.06 0 0 1-1.349-1.238 16.32 16.32 0 0 1-2.227-3.259 39.2 39.2 0 0 1-3.357-8.962 22.46 22.46 0 0 1-.533-9.581c.348-3.802 1.313-7.515 2.855-10.982 1.792-3.956 4.791-7.186 8.532-9.19 3.886-2.073 8.18-3.188 12.548-3.258-9.241-.236-18.378 2.08-26.476 6.713-4.716 2.672-8.568 6.73-11.073 11.666-2.551 5.326-3.637 11.281-3.137 17.207.477 5.825 2.365 11.431 5.489 16.294 1.713 2.692 3.831 5.08 6.274 7.071 2.958 2.495 6.56 4.026 10.352 4.4 6.085.373 12.096-1.535 16.94-5.377 4.208-3.434 7.51-7.918 9.599-13.035 4.015-9.777 4.078-19.553 4.768-28.352l2.008-27.179.753-9.418c7.126 2.199 14.525 3.297 21.959 3.259a.82.82 0 0 0 .461-.125c.139-.086.251-.213.323-.364a.97.97 0 0 0 .133-.632c-.029-.221-.131-.424-.29-.573zM314.765 600.6c-4.303-5.922-7.243-12.788-8.595-20.074a82.18 82.18 0 0 1-1.412-22.975 57.78 57.78 0 0 1 5.866-22.257c.73-1.44 1.648-2.767 2.729-3.943.313-.392.672-.742 1.067-1.043l-.345-.424c-.11-.018-.21-.076-.282-.163l.282.163a1.71 1.71 0 0 0 .69.196c.282 0 0 0-.22.358a17.15 17.15 0 0 1 1.883 3.52 104.68 104.68 0 0 1 5.489 24.669c1.13 8.766 1.663 17.695 2.102 26.657s.596 17.5.69 26.299c-3.675-3.29-7.008-6.971-9.944-10.983z"/><path d="M314.922 522.031l-.345-.424a1.69 1.69 0 0 0 .69.195c.157-.032 0 .229-.345.229zm53.391 141.205c.433 2.584.024 5.245-1.161 7.561a26.93 26.93 0 0 0-1.443 6.191c-.769 4.158-.521 8.45.722 12.482 1.626 3.62 4.175 6.708 7.372 8.929a14.13 14.13 0 0 0 5.602 2.428c2.011.388 4.08.327 6.067-.18 1.889-.718 3.543-1.978 4.77-3.633a11.3 11.3 0 0 0 2.163-5.719c.679-4.871.423-9.833-.753-14.6-.903-3.966-2.772-7.624-5.427-10.624-2.51-3.258-6.086-5.279-8.438-9.972l-.596-1.205c-.695-1.401-.827-3.031-.369-4.533s1.471-2.755 2.815-3.484c.853-.459 1.801-.694 2.761-.684 6.933 0 11.701 4.953 15.685 10.167 3.833 5.487 6.016 12.029 6.274 18.803.321 6.368-.819 12.723-3.326 18.543-2.478 5.638-6.43 12.742-12.547 16.294-3.129 1.733-6.619 2.639-10.164 2.64-3.424-.043-6.801-.832-9.913-2.314-2.972-1.705-5.653-3.907-7.937-6.518l-.25-.293c-2.012-2.815-3.736-5.84-5.145-9.027-2.81-6.286-3.463-13.381-1.851-20.107a33.31 33.31 0 0 1 3.639-9.059c.639-1.576 1.665-2.95 2.975-3.985s2.859-1.694 4.491-1.914c.96-.105 1.922.173 2.691.779a3.97 3.97 0 0 1 1.45 2.48l-.157.554zm179.403-61.364c-.792-1.867-2.26-3.334-4.086-4.084a7.21 7.21 0 0 0-5.67.076 147.15 147.15 0 0 1-35.447 10.949l-3.827.587v-3.813c-.22-10.819 0-21.639.345-32.425s1.317-21.508 2.603-31.904c.534-4.983 1.426-9.917 2.667-14.762.354-1.412.859-2.779 1.505-4.074 1.25.955 2.396 2.048 3.42 3.259.753.88 1.474 1.89 2.227 2.835l2.133 3.063c2.886 4.204 5.49 8.799 8.094 13.394l15.371 28.319c.169.313.432.56.75.701a1.51 1.51 0 0 0 1.006.081 1.55 1.55 0 0 0 .553-.275 1.61 1.61 0 0 0 .409-.475c.105-.185.174-.389.203-.602a1.68 1.68 0 0 0-.035-.636c-2.531-10.713-5.802-21.223-9.788-31.447-2.039-5.117-4.266-10.2-6.87-15.251-1.372-2.6-2.891-5.114-4.548-7.528-1.905-2.942-4.358-5.458-7.215-7.398-.968-.666-2.025-1.182-3.137-1.531a11.9 11.9 0 0 0-2.039-.457c-.805-.048-1.611-.048-2.416 0-2.894.389-5.539 1.903-7.403 4.237-2.208 2.882-3.811 6.212-4.705 9.776-1.516 5.66-2.442 11.472-2.761 17.337a286.63 286.63 0 0 0 0 33.24l1.788 32.784.283 4.334c-2.385.261-4.769.391-7.153.489-3.137.228-6.525.554-9.63.847a16.44 16.44 0 0 1-2.824 0 103.83 103.83 0 0 0 3.922-17.663c2.313-17.178 1.16-34.669-3.388-51.359a102.17 102.17 0 0 0-4.298-12.546c-1.831-4.521-4.259-8.754-7.215-12.579l-1.474-1.662c-.596-.554-1.192-1.141-1.851-1.695-.831-.649-1.713-1.227-2.635-1.727-1.286-.688-2.676-1.14-4.11-1.336a11.2 11.2 0 0 0-5.176.456c-.745.209-1.462.516-2.133.913a21.62 21.62 0 0 0-1.819 1.173c-.825.69-1.601 1.441-2.321 2.248-.534.652-1.067 1.369-1.569 2.054-2.568 4.247-4.534 8.856-5.835 13.686a277.68 277.68 0 0 0-8.03 49.535 423.59 423.59 0 0 0-1.067 49.305 460.62 460.62 0 0 0 1.412 24.604l.376 4.954-8.658 7.267c-.285.239-.482.572-.559.944a1.72 1.72 0 0 0 .137 1.099c.165.339.437.609.771.765s.709.189 1.063.092c2.717-.714 5.371-1.662 7.936-2.835.408 4.106.879 8.212 1.412 12.286s1.286 8.212 2.133 12.318a65.86 65.86 0 0 0 1.506 6.192 44.17 44.17 0 0 0 2.196 6.289 16.23 16.23 0 0 0 4.611 6.29 8.61 8.61 0 0 0 4.737 1.76 9.78 9.78 0 0 0 4.611-.945c2.244-1.089 4.3-2.553 6.086-4.335 1.662-1.564 3.137-3.258 4.611-4.79.363-.422.669-.893.91-1.401.423-.653.706-1.393.829-2.17s.083-1.572-.117-2.331a5.56 5.56 0 0 0-1.04-2.069c-.486-.603-1.092-1.091-1.776-1.43s-1.43-.52-2.188-.532a5.1 5.1 0 0 0-2.202.463c-.693.317-1.313.785-1.816 1.374a5.55 5.55 0 0 0-1.101 2.035 20.44 20.44 0 0 1-5.709 7.853c-1.035.652-1.035.652-1.726.359a7.43 7.43 0 0 1-2.478-3.259c-1.529-3.39-2.585-6.989-3.137-10.689-.666-3.881-1.127-7.798-1.38-11.732-.408-5.311-.565-10.656-.565-16 1.82-1.174 3.577-2.412 5.302-3.748 6.565-5.135 12.487-11.102 17.63-17.761 5.811-7.582 10.427-16.073 13.677-25.158a31.44 31.44 0 0 0 4.172.848l9.599 1.238a158.77 158.77 0 0 0 7.905.587l1.035 19.715c.816 21.802 1.6 43.571 1.506 65.47a6.96 6.96 0 0 0 0 1.369c.345 1.94 1.418 3.658 2.983 4.777a6.95 6.95 0 0 0 5.361 1.186c1.868-.358 3.522-1.473 4.599-3.099a7.67 7.67 0 0 0 1.142-5.569c-3.827-21.411-6.274-42.984-8.25-64.622-.565-6.355-.91-12.71-1.129-19.097h4.517a157.49 157.49 0 0 0 39.463-6.518l.878-.326c.905-.394 1.725-.971 2.413-1.697s1.23-1.588 1.595-2.534a7.95 7.95 0 0 0 .53-2.977c-.015-1.019-.224-2.025-.617-2.959zm-85.858-9.353c-.879 15.209-5.667 29.894-13.866 42.528-4.126 6.229-8.984 11.9-14.461 16.88.219-7.039.721-14.078 1.317-21.084 1.349-15.903 3.608-31.839 5.616-47.709l3.356-23.594c1.109-7.626 2.648-15.178 4.611-22.616.408-1.467.879-2.933 1.349-4.302.94 1.57 1.798 3.191 2.573 4.856 1.522 3.317 2.832 6.736 3.921 10.232 4.63 14.422 6.526 29.638 5.584 44.809zm-163.907 196.93c-2.949 2.281-6.1 4.267-9.411 5.931-1.662.815-3.137 1.531-5.019 2.216s-3.608 1.401-5.333 1.955c-6.213 2.296-12.951 2.581-19.324.815a41.97 41.97 0 0 1-8.971-3.259c-2.92-1.49-5.676-3.303-8.219-5.41-2.259-1.857-5.113-4.92-7.905-7.56s-5.459-5.54-8.094-8.44c-10.54-11.537-20.672-23.888-30.522-36.564l-58.536-77.104-4.486-6.061c4.302-1.756 8.493-3.791 12.548-6.094a87.99 87.99 0 0 0 12.014-8.473c8.104-6.635 14.71-15.034 19.356-24.604 4.826-9.947 7.259-20.962 7.089-32.1a58.91 58.91 0 0 0-3.137-17.499c-2.084-5.92-5.283-11.349-9.411-15.969-4.259-4.672-9.528-8.225-15.371-10.363a67.42 67.42 0 0 0-14.085-3.552c-8.637-1.108-17.335-1.62-26.037-1.531h-3.921c.439-2.575.941-5.052 1.38-7.3a93.02 93.02 0 0 1 2.604-9.777 62.9 62.9 0 0 1 3.576-8.831l1.38-2.737c.399-.831.613-1.744.628-2.673 0-1.576-.601-3.088-1.67-4.205s-2.522-1.75-4.039-1.758a22.34 22.34 0 0 0-9.026 2.379 23.15 23.15 0 0 0-7.381 5.898c-3.775 4.366-6.515 9.589-7.999 15.251a147.71 147.71 0 0 0-3.388 14.209l-.188 1.14a173.34 173.34 0 0 0-20.798 4.204c-7.748 2.151-15.497 4.074-23.214 6.974-15.277 5.899-28.891 14.176-42.82 21.932-.044.018-.085.045-.119.079s-.061.077-.078.123a.37.37 0 0 0-.024.144.37.37 0 0 0 .033.143.41.41 0 0 0 .216.195c.093.036.194.036.286 0a244.01 244.01 0 0 1 44.357-15.772 214.07 214.07 0 0 1 23.088-3.064 141.04 141.04 0 0 1 17.002-.358L81.94 577.43l-3.545 27.146-.91 6.746a110.88 110.88 0 0 0-16.783 0 50.36 50.36 0 0 0-11.419 1.923 23.89 23.89 0 0 0-5.458 2.053 14.39 14.39 0 0 0-4.329 3.096c-2.317 2.295-3.923 5.256-4.611 8.505a29.3 29.3 0 0 0 0 9.516 25.6 25.6 0 0 0 1.318 4.986 21.26 21.26 0 0 0 2.729 5.018c1.932 2.548 4.253 4.75 6.87 6.518a43.81 43.81 0 0 0 6.901 3.911 75.66 75.66 0 0 0 18.069 5.311l-2.604 23.497c-.408 4.529-1.098 9.027-1.224 13.621s-.314 8.31 1.6 11.439a3.99 3.99 0 0 0 1.725 1.662 5.53 5.53 0 0 0 2.351.367 5.56 5.56 0 0 0 2.291-.66c4.517-3.259 4.141-6.062 5.615-10.461s2.039-8.897 3.137-13.329 1.882-8.929 2.761-13.426l2.133-11.178a118.62 118.62 0 0 0 37.298-5.442l5.27 7.951 53.329 81.308c9.128 13.459 18.445 26.95 28.985 39.725 2.635 3.259 5.396 6.322 8.125 9.45 2.937 3.308 6.081 6.41 9.411 9.288 3.65 2.981 7.657 5.456 11.92 7.365 4.285 2.023 8.828 3.394 13.489 4.074 9.328.647 18.636-1.538 26.79-6.29 1.913-1.043 3.733-2.183 5.396-3.259s3.638-2.346 5.364-3.617a70.15 70.15 0 0 0 9.599-8.571c11.049-12.421 18.64-27.729 21.959-44.287-5.68 15.052-15.202 28.212-27.543 38.063zM73.407 637.197a55.73 55.73 0 0 1-13.803-1.532c-1.794-.365-3.541-.944-5.207-1.727a11.24 11.24 0 0 1-1.851-1.336 5.95 5.95 0 0 1-1.255-2.249 8.75 8.75 0 0 1 0-5.083 9.94 9.94 0 0 1 1.129-2.412 10.77 10.77 0 0 1 3.858-3.91c1.58-.995 3.251-1.824 4.988-2.477a35.19 35.19 0 0 1 15.277-2.053c-.878 7.593-2.102 15.153-3.137 22.779zm26.476-3.878c-2.353.652-4.706 1.238-7.121 1.76l2.478-15.708c3.122 1.461 5.848 3.7 7.937 6.518l3.607 5.214c-2.258.815-4.548 1.727-6.901 2.216zm11.387-3.976l-4.705-6.289c-2.74-3.436-6.283-6.084-10.289-7.691l-.408-.163 1.286-7.952 4.486-26.917c1.6-8.962 3.482-17.631 5.301-26.299 1.882.358 3.733.782 5.584 1.206 7.074 1.748 13.883 4.501 20.233 8.179a51.65 51.65 0 0 1 7.843 5.573c2.039 1.857 3.545 3.845 3.356 4.367 1.766 3.767 2.831 7.847 3.137 12.025a37.83 37.83 0 0 1-3.137 15.381c-2.324 5.224-5.618 9.919-9.693 13.818-6.712 6.366-14.511 11.373-22.994 14.762zm132.945 79.938c-.388.455-.926.741-1.507.801a2.26 2.26 0 0 1-1.63-.475c-.827-.606-1.511-1.398-2-2.319a7.13 7.13 0 0 1-.823-2.993l-.659-5.54c-.251-3.715-.345-7.528-.91-11.243-1.098-6.974-2.729-13.882-4.454-20.726l-.22 17.141c-.075 4.044-.731 8.053-1.945 11.895-1.305 4.136-3.444 7.935-6.274 11.145-1.704 1.952-3.829 3.457-6.201 4.392a15.5 15.5 0 0 1-7.445.985c-3.103-.485-5.939-2.102-7.999-4.562a20.12 20.12 0 0 1-3.482-7.332c-1.066-4.4-1.474-8.017-2.039-11.569a79.55 79.55 0 0 0-2.29-10.168c-.951-3.063-2.235-6.004-3.827-8.766-1.83-2.653-3.934-5.09-6.274-7.267a4.54 4.54 0 0 1-.985-1.489 4.68 4.68 0 0 1 0-3.54 4.55 4.55 0 0 1 .985-1.489 4.38 4.38 0 0 1 2.278-1.234c.859-.168 1.748-.067 2.553.289 3.851 1.88 7.232 4.657 9.881 8.115 2.684 3.391 4.805 7.224 6.274 11.34 1.333 3.855 2.382 7.81 3.137 11.83.816 3.878 1.286 7.821 1.945 10.787.184 1.03.479 2.036.879 2.998a2.46 2.46 0 0 0 1.16 1.205c1.1.456 2.283.654 3.465.581s2.334-.416 3.374-1.004c2.896-1.462 5.222-3.912 6.587-6.941 1.386-3.257 2.122-6.771 2.165-10.331a165.04 165.04 0 0 0-.91-22.518c0-1.89-.282-3.781-.313-5.801v-1.597c.015-.728.121-1.451.313-2.151.056-.181.13-.356.22-.521.132-.319.324-.607.565-.847l.533-.489c.338-.208.71-.352 1.098-.424a2.85 2.85 0 0 1 1.851.261 3.15 3.15 0 0 1 .752.521l.377.359.439.586c.319.528.612 1.072.878 1.63a44.24 44.24 0 0 1 2.196 5.768l1.443 5.54c1.757 7.43 3.137 14.925 4.8 22.388.784 3.748 1.976 7.397 2.729 11.21.427 1.886.71 3.804.847 5.736a7.16 7.16 0 0 1-.122 3.1c-.266 1.011-.75 1.945-1.415 2.733zm843.405 97.243c-.2 3.037-1.54 5.872-3.73 7.886-1.41 1.069-3.1 1.651-4.84 1.662a13.81 13.81 0 0 1-4.48-.847c-1.12-.413-2.22-.892-3.29-1.434l3.13 6.061c2.67 4.82 4.59 10.043 5.71 15.48a20.9 20.9 0 0 1 0 5.474 14.35 14.35 0 0 1-2.45 6.355c-.71.915-1.47 1.785-2.29 2.607-.75.587-1.53 1.173-2.35 1.727-.74.49-1.53.905-2.35 1.239a15.57 15.57 0 0 1-2.32.945c-5.51 1.665-11.28 2.152-16.97 1.434-11.01-1.127-21.44-5.669-29.93-13.036-4.35-3.898-7.95-8.62-10.6-13.915-2.54-5.129-4.34-10.62-5.34-16.294-2.2-11.663-.29-23.759 5.37-34.087 3.04-5.392 7.36-9.881 12.55-13.035 5.05-2.904 10.72-4.45 16.5-4.497 10.55-.036 20.71 4.114 28.42 11.601.3.317.47.744.47 1.189s-.17.873-.47 1.19a1.59 1.59 0 0 1-.77.468c-.3.075-.61.06-.89-.045-4.28-1.497-8.7-2.492-13.18-2.965-4.14-.395-8.31-.12-12.36.815-3.63.866-7.04 2.521-10.01 4.855a23.88 23.88 0 0 0-6.27 8.441c-6.09 13.23-3.14 33.37 7.59 43.407 5.89 5.474 13.14 9.111 20.92 10.493 3.64.78 7.38.868 11.05.261a11.57 11.57 0 0 0 2.6-.945l.28-.293a7.22 7.22 0 0 0 0-1.858c-.43-4.248-1.49-8.402-3.13-12.318l-2.51-6.876c-.41-1.206-.82-2.444-1.2-3.78-.51-1.634-.81-3.334-.87-5.052-.02-.783.09-1.564.31-2.313a6.89 6.89 0 0 1 .75-1.63c.4-.578.89-1.084 1.45-1.499a5.7 5.7 0 0 1 3.29-.912l1.25.163.79.293a16.59 16.59 0 0 1 3.92 2.412c1.69 1.463 3.46 2.823 5.3 4.073.6.456 1.28.775 2.01.938a5.04 5.04 0 0 0 2.19.007c1.6-1.028 2.79-2.627 3.33-4.497a1.69 1.69 0 0 1 .75-1.028 1.57 1.57 0 0 1 1.23-.178c.41.113.77.392.99.777a1.82 1.82 0 0 1 .17 1.276l.28-.195zm6.08-12.253l2.48 5.311c.35.767.4 1.646.14 2.449-.27.803-.82 1.468-1.55 1.853-.74.374-1.59.43-2.37.155-.79-.274-1.43-.857-1.8-1.621-.21-.515-.32-1.07-.32-1.63l.35-5.898c.01-.389.14-.764.38-1.061.25-.298.58-.5.95-.572a1.55 1.55 0 0 1 1.07.173 1.71 1.71 0 0 1 .74.841h-.07zm14.59.066v5.833c-.01.738-.29 1.442-.8 1.961-.5.519-1.19.809-1.9.809-.35-.004-.69-.08-1.01-.223-.33-.143-.62-.351-.86-.611-.25-.26-.44-.568-.57-.906a2.75 2.75 0 0 1-.19-1.062c0-.357.06-.711.19-1.043l2.1-5.377c.17-.407.48-.73.87-.901a1.58 1.58 0 0 1 1.23-.012c.28.133.52.349.69.621a1.71 1.71 0 0 1 .25.911zm37.33 15.056c-.26.294-.57.537-.91.717l-.44.26a11.13 11.13 0 0 1-5.2 1.467 15.6 15.6 0 0 1-4.74-.685 30.75 30.75 0 0 1-3.92-1.531l-.79-.359-.5 2.803c-1 5.801-2.04 11.634-2.6 17.337a32.25 32.25 0 0 0 0 7.854c0 .456.25.749.19.814-.07.065.28.359.62.424 1.13.145 2.28-.012 3.33-.456a1.52 1.52 0 0 1 1.2-.106c.39.132.72.422.92.806a1.73 1.73 0 0 1 .1 1.245c-.13.413-.41.756-.78.955a9.79 9.79 0 0 1-4.89 2.118c-1.23.12-2.45-.19-3.48-.88-.99-.721-1.76-1.699-2.26-2.835-1.21-3.201-1.84-6.601-1.89-10.037a118.1 118.1 0 0 1 .98-18.608c.71-6.075 1.76-12.102 3.13-18.054 1.41-6.039 3.79-11.79 7.03-17.011.25-.372.63-.629 1.06-.715.42-.085.87.008 1.23.259a1.69 1.69 0 0 1 .53.578c.13.231.2.491.22.758a84.99 84.99 0 0 1-1.41 18.087l-2.01 10.754 1.2.195c1.2.239 2.41.392 3.64.457.92.118 1.86.034 2.75-.247a6.55 6.55 0 0 0 2.42-1.383c.66-.68 1.54-1.071 2.46-1.089a3.48 3.48 0 0 1 2.5.992c.68.654 1.09 1.556 1.14 2.516s-.26 1.904-.86 2.632l.03-.032zm24.85 22.648c-.49.389-1.06.636-1.67.717h-.34l2.01-.717zm10.13-8.702c-.46-.958-1.27-1.689-2.24-2.031-.98-.342-2.05-.268-2.97.206l-4.36 2.086a14.83 14.83 0 0 0-3.45-5.638c-2.54-2.335-5.8-3.632-9.19-3.65-3.31-.233-6.58.785-9.22 2.868-2.52 2.209-4.21 5.266-4.77 8.636-.15.25-.24.526-.28.815a30.99 30.99 0 0 0-.22 8.44c.32 3.098 1.4 6.058 3.13 8.603 1.91 2.726 4.62 4.738 7.72 5.736a15.42 15.42 0 0 0 4.86.749c1.75-.029 3.48-.371 5.12-1.01l.62-.261a3.68 3.68 0 0 0 1.07-.651c.87-.739 1.43-1.809 1.54-2.973a4.51 4.51 0 0 0-.93-3.235 4.2 4.2 0 0 0-2.86-1.604 4.16 4.16 0 0 0-3.12.968 6.05 6.05 0 0 1-2.13.717 7.42 7.42 0 0 1-2.54 0c-1.77-.298-3.39-1.177-4.64-2.509-1.1-1.285-1.92-2.795-2.42-4.432a10.2 10.2 0 0 0 3.14.652c3.17-.02 6.33-.435 9.41-1.239l6.27-1.825 2.01-.749 8-3.096.32-.163a4.03 4.03 0 0 0 1.31-.883c.37-.384.67-.842.87-1.348a4.33 4.33 0 0 0 .29-1.594 4.3 4.3 0 0 0-.34-1.585zm-15.69 2.705l-4.39 1.369c-2.27.736-4.67.925-7.03.554-.55-.116-1.1-.291-1.63-.522 0 0-.56-.358-.81-1.205-.44-1.008-.6-2.12-.47-3.216s.54-2.136 1.19-3.009c.92-.7 1.97-1.201 3.08-1.475s2.26-.316 3.38-.122a7.43 7.43 0 0 1 3.21.964c.99.564 1.84 1.348 2.5 2.295.77 1.307 1.07 2.853.85 4.367h.12zm28.08 14.079v-.163c0-.163-.22-.228 0-.228v.391z"/><path d="M1212.03 823.307a13.19 13.19 0 0 0-2.57-5.38 12.51 12.51 0 0 0-4.61-3.614c-4.62-1.528-9.6-1.32-14.09.586a126.57 126.57 0 0 1 1.88-16.131l.82-4.073c.28-1.336.69-2.542 1.1-3.846a72.79 72.79 0 0 1 2.88-7.593 83.3 83.3 0 0 1 8.19-14.078c.5-.674.84-1.453 1.02-2.282s.18-1.686 0-2.515a5.93 5.93 0 0 0-1.02-2.281c-.5-.674-1.13-1.228-1.85-1.623a5.47 5.47 0 0 0-2.11-.669c-.74-.076-1.49 0-2.2.224s-1.37.592-1.95 1.082c-.57.49-1.04 1.093-1.39 1.775-2.85 5.346-5.28 10.926-7.25 16.685-1.01 2.881-1.87 5.818-2.57 8.799a77.67 77.67 0 0 0-.91 4.594c-.28 1.662-.41 3.031-.57 4.498a139.65 139.65 0 0 0 0 35.847c.42 3.051 1.05 6.068 1.89 9.027v.293l.15.358.32.685 1.66 13.035c.06.433.26.832.57 1.129.3.297.7.474 1.12.5.48.018.95-.159 1.31-.493a1.98 1.98 0 0 0 .61-1.299l.44-9.548c1.51.256 3.05.322 4.58.195 1.61-.094 3.22-.345 4.79-.749a13.85 13.85 0 0 0 2.7-1.011c.97-.514 1.86-1.172 2.64-1.955 2.48-2.679 4.11-6.096 4.64-9.776.67-3.44.59-6.99-.22-10.396zm-7.53 8.799c-.3 2.048-1.08 3.987-2.29 5.638-.46.609-1.12 1.034-1.85 1.205-1.1.389-2.23.673-3.39.848-1.09.162-2.19.217-3.29.163a3.63 3.63 0 0 1-.78 0v.293-.163c0-.163-.22-.228 0-.228a38.34 38.34 0 0 1-1.76-7.561c-.55-4.319-.75-8.68-.6-13.035 3.93-.678 7.97-.192 11.64 1.401.68.54 1.24 1.217 1.65 1.991a6.67 6.67 0 0 1 .77 2.506 18.63 18.63 0 0 1-.1 6.942zm34.6 1.435c-.42-1.819-1.2-3.528-2.29-5.019a8.61 8.61 0 0 1-1.25-2.705c-.41-2.036-.21-4.154.59-6.061.18-.394.27-.819.28-1.251a3.21 3.21 0 0 0-.2-1.265 3.44 3.44 0 0 0-.65-1.089 3.24 3.24 0 0 0-1.01-.746 3.08 3.08 0 0 0-1.2-.289c-.42-.014-.83.058-1.22.211a3.12 3.12 0 0 0-1.05.68c-.3.295-.55.65-.72 1.044-.99 1.916-1.59 4.024-1.75 6.192-1.63-.232-3.26-.362-4.9-.391-1.76-.15-3.53.175-5.14.945-1.65 1.052-2.89 2.665-3.52 4.562-.57 1.651-.87 3.393-.87 5.149-.03 1.78.27 3.549.87 5.214a11.38 11.38 0 0 0 3.37 4.581c1.48 1.2 3.24 1.979 5.1 2.263 1.7.29 3.42.29 5.12 0 1.64-.225 3.24-.685 4.77-1.369 1.91-.827 3.53-2.25 4.64-4.074 1.07-2 1.44-4.33 1.03-6.582zm-8.44 4.301c-1 .456-2.05.784-3.13.978-1.03.238-2.09.304-3.14.195a4.77 4.77 0 0 1-2.42-.776 4.98 4.98 0 0 1-1.72-1.928 11.27 11.27 0 0 1-.5-6.323c.16-.83.59-1.577 1.22-2.118.89-.393 1.83-.614 2.79-.652 1.57 0 3.14-.26 4.9-.26a1.74 1.74 0 0 0 0 .456c.39 1.784 1.1 3.475 2.1 4.986a7.22 7.22 0 0 1 1.25 2.574c.41 1.499.38 1.858-1.35 2.868zm-118.57-3.716c-.45-2.161-1.43-4.162-2.86-5.801a14.14 14.14 0 0 1-2.07-3.259c-.91-2.564-.99-5.37-.22-7.984a1.55 1.55 0 0 0-.03-.953c-.1-.308-.28-.578-.53-.774a1.56 1.56 0 0 0-1.18-.312c-.42.061-.79.29-1.05.638-1.36 1.839-2.27 4-2.63 6.289a48.04 48.04 0 0 0-6.97-.912 14.67 14.67 0 0 0-5.64.782l-1.04.456-.72.522a8.07 8.07 0 0 0-1.35 1.173c-.8.854-1.45 1.846-1.91 2.933a15.85 15.85 0 0 0-1.32 6.191c-.08 2.135.27 4.263 1 6.257.86 2.228 2.34 4.144 4.24 5.508a14.29 14.29 0 0 0 5.89 2.444c1.95.292 3.93.292 5.87 0a24.07 24.07 0 0 0 5.46-1.434c2.17-.801 4.07-2.225 5.49-4.106a10.05 10.05 0 0 0 1.55-3.659c.27-1.318.28-2.679.02-3.999zm-7.72 2.737a5.81 5.81 0 0 1-2.23 1.304 20.1 20.1 0 0 1-3.67.879 12.66 12.66 0 0 1-3.51 0 5.68 5.68 0 0 1-2.63-.899 5.92 5.92 0 0 1-1.92-2.066c-.43-1.034-.68-2.136-.75-3.259a9.67 9.67 0 0 1 .28-3.259 5.3 5.3 0 0 1 .57-1.205 2.43 2.43 0 0 1 .37-.489l.22-.228c1.14-.488 2.35-.785 3.58-.88 2.19-.294 4.45-.424 6.74-.554v.717c.42 1.953 1.17 3.816 2.2 5.507.65.839 1.04 1.86 1.13 2.933a1.92 1.92 0 0 1-.04.791c-.06.258-.18.499-.34.708zm165.26-14.077c-.31 1.3-1.1 2.421-2.2 3.118a4.7 4.7 0 0 1-3.67.597 6.31 6.31 0 0 1-.82-.293c-1.76-.826-3.68-1.237-5.61-1.206a5.26 5.26 0 0 0-1.66.293c-.19 0-.38 0-.63 1.076a35.91 35.91 0 0 0-.44 7.397c0 2.672.25 5.377.44 8.082.03.328 0 .659-.1.973a2.5 2.5 0 0 1-.45.859 2.52 2.52 0 0 1-.74.608c-.28.15-.59.24-.91.265-.58.055-1.16-.109-1.63-.462a2.51 2.51 0 0 1-.94-1.461l-1.66-8.212c-.6-2.956-.86-5.975-.79-8.995a5.12 5.12 0 0 1 0-.554c.15-1.401.58-2.755 1.26-3.975a7.48 7.48 0 0 1 1.32-1.695c1.54-1.46 3.44-2.452 5.49-2.868 3.31-.712 6.74-.601 10 .326a4.77 4.77 0 0 1 1.79.786c.53.384.99.877 1.34 1.449a5.03 5.03 0 0 1 .68 1.882 5.23 5.23 0 0 1-.07 2.01z"/><path d="M1249.11 820.896a10.46 10.46 0 0 0-1.26 3.976l-1.91-.554-2.57-.684c-.7-.232-1.43-.385-2.17-.457-.66-.106-1.28-.434-1.76-.935-.47-.501-.78-1.148-.87-1.844s.04-1.405.36-2.02c.33-.615.84-1.103 1.46-1.392.44-.102.9-.102 1.35 0l.59.228a15.71 15.71 0 0 1 2.89 1.368l2.38 1.337 1.51.977zm43.48 5.018a12.26 12.26 0 0 0-5.29.059 12.5 12.5 0 0 0-4.81 2.287c-1.56 1.227-2.94 2.687-4.08 4.334-.46.676-.79 1.44-.97 2.249 0 .651-.16.749.56 1.303 1.84.86 3.82 1.336 5.84 1.402a62.53 62.53 0 0 0 6.55.26 56.97 56.97 0 0 1 6.65.196c.54.163 1.19 0 1.7.814a.87.87 0 0 1-.03.595.8.8 0 0 1-.41.416 5.19 5.19 0 0 1-.76.423l-3.13 1.467a22.48 22.48 0 0 0-5.4 3.747 7.02 7.02 0 0 0-1.6 2.216c-.28.75 0 .75 0 1.565.28 1.339 1.06 2.51 2.17 3.258 1.13.489.81.196 2.6-.423a20.38 20.38 0 0 1 7.81-2.086c3.22.012 6.39.851 9.22 2.444 3.79 2.169 7.06 5.177 9.6 8.81s4.27 7.801 5.09 12.21c.27 1.591.38 3.207.34 4.823.03 1.641-.12 3.28-.44 4.888-1.28 6.002-4.24 11.478-8.5 15.74-3.75 3.896-8.19 6.995-13.08 9.125a43.51 43.51 0 0 1-15.06 3.878 36.69 36.69 0 0 1-15.46-2.281c-5.21-2.062-9.62-5.84-12.55-10.755a27.83 27.83 0 0 1-3.61-15.512c.34-5.038 1.9-9.905 4.55-14.143.11-.181.26-.337.43-.459.18-.121.37-.205.57-.248.21-.042.42-.042.62.001.21.043.4.128.57.25.29.184.5.459.62.782s.14.678.04 1.01c-2.22 8.408-.87 17.337 3.83 22.649 4.71 5.312 11.67 6.518 19.07 5.051 7.09-1.231 13.59-4.863 18.48-10.33 2.08-2.167 3.5-4.921 4.08-7.919.14-.63.2-1.276.19-1.923a11 11 0 0 0 0-1.988c-.18-1.534-.56-3.036-1.13-4.464-1.09-3.081-2.8-5.882-5.02-8.212-.88-.954-1.95-1.698-3.14-2.184a11.15 11.15 0 0 0-5.17 0c-1.66.283-3.36.216-4.99-.195-1.81-.498-3.45-1.527-4.71-2.966a11.99 11.99 0 0 1-2.35-4.167 12.55 12.55 0 0 1-.57-4.795 10.31 10.31 0 0 1 .63-2.574 7.93 7.93 0 0 1 1.57-2.184 10.27 10.27 0 0 1 3.58-1.955c2.35-.782 4.58-1.108 6.74-1.662 1.08-.242 2.13-.591 3.14-1.043.41-.195 1.1-.651.91-.782s-.82-.326-1.29-.358c-2.18-.01-4.36.11-6.52.358-2.2.196-4.4.456-6.65.587-2.39.242-4.79.01-7.09-.685-.8-.289-1.49-.809-2.01-1.499-.54-.734-.86-1.619-.91-2.541-.06-1.478.21-2.948.78-4.302.93-2.346 2.18-4.541 3.71-6.518 3.41-4.39 8.13-7.483 13.42-8.799l.6-.163c1.38-.384 2.86-.181 4.1.564s2.15 1.973 2.52 3.412a5.8 5.8 0 0 1-.55 4.262c-.71 1.289-1.9 2.23-3.28 2.614a5.47 5.47 0 0 1-2.32.066zM888.61 310.826c-1.035 0-.502-34.282-.471-35.292H868.91c0-1.5 1.976-42.887 2.039-44.288-.408 0-18.195-1.108-19.01-1.14v-6.192h-11.293c.502-6.713-.941-5.247-6.274-5.964l.188-19.944-10.132.652c0-1.564.815-17.858.847-18.869-2.73 0-45.204-.456-47.588-.488.376 1.988 1.568 9.059 1.913 11.177l-21.488.62c-1.694-8.115.502-10.429-8.971-9.451-.628-.945-.597-7.984-2.447-7.104l-50.474 1.271c0-1.76 0-6.159.157-7.887l-24.563 2.477 1.286-9.776-9.41.619v-12.058l-55.336.359c0-2.607-.628-17.663-.659-19.879-1.192 0-28.233 1.792-30.209 1.955l-8.721-17.891c-1.788 0-78.424 3.976-80.306 4.074-1.004-2.053 3.576-43.082-1.161-40.898l-14.963-5.116c-1.067.391-32.154.847-33.189 1.238-13.803-52.76-4.831-20.954-60.638-22.453 0-11.21.753-23.007.753-34.218-10.572-5.312-21.237-10.33-31.966-15.284-19.574 1.304-39.306.456-58.567 5.279-5.082 27.863 11.387 63.221-28.232 55.107-22.963 21.117-57.062 48.491-78.613 69.673l-8.595 280.487c-45.298 11.471-89.843 31.056-125.228 62.276-82.628 72.964-6.274 11.536 17.504-3.031 65.029-40.116 136.269-65.535 211.149-65.176h.941c65.405-26.983 189.974-78.212 291.173-79.841s197.629-.945 297.541-8.897c92.509-7.332 194.111 27.472 243.871 83.654-47.03-65.079-142.892-86.554-221.63-89.781zm-402.284-189.63c1.662 0 73.593-2.02 75.287-2.053-10.446 11.536-23.057 24.669-33.001 36.629-.565-.912-6.274-11.113-6.556-11.667l-31.935-4.334c-7.183 0-22.805-2.542-29.926-3.063-6.274-16.131-14.368-42.104-19.198-58.659 39.902-1.238 42.474-.359 45.329 43.147zM186.902 132.08l76.605-65.567 23.935.75-1.349 64.524c-31.369-.358-67.79.391-99.191.522v-.229zm83.255 253.504c-.358 3.21-1.829 6.175-4.138 8.34s-5.299 3.382-8.409 3.424c-25.096.359-48.592 5.996-73.625 11.601l2.259-273.74 99.096 2.737c-.502 51.587-2.823 112.918-6.085 163.919-1.945 29.459-6.18 55.269-9.098 83.719zm64.34-9.418c-16.25 10.037-35.699 15.349-52.89 24.245 5.71-94.147 5.239-198.983 9.913-293.749l4.11-95.386a236.28 236.28 0 0 1 50.411-6.289l-6.274 185.948-3.137 181.255c-.015.809-.231 1.6-.626 2.296s-.959 1.275-1.633 1.68h.126zm155.781-47.416c-51.644 9.582-102.257 24.416-151.107 44.287L349.554 5.932c24.594 7.593 28.233 22.616 25.692 47.611 13.802 0 29.864 1.532 43.666 1.923 0 0-29.613 33.338-41.345 50.251-.47.651-2.039 4.236-1.349 3.878 13.677-7.593 50.945-50.121 50.945-50.121 4.548 13.524 9.787 26.788 14.492 40.246-.721.945-31.369-2.737-22.46 3.52 32.467-1.532 24.374 5.214 34.036 32.849l-65.877-9.386c1.381 5.899-5.803 198.071-1.537 202.34 4.517.619 7.215-192.009 8.784-193.541 28.232 3.063 69.013 8.017 96.838 12.319l-1.161 180.929zm254.094-52.793c-2.666-3.259-5.709-6.159-8.501-9.222 17.41 2.183 40.059-8.18 51.635 8.603l-43.259.619h.125zm.879 1.988s0-.13-.126 0h.126zm17.629 42.039c-6.117.195-12.265 0-18.382.358-.22-13.589.219-27.406.596-41.028l18.822.228-1.036 40.442zm18.32-.945c-4.329.423-8.72.651-13.112.782l-.941-40.247 21.739.391c-2.071 6.388 5.333 39.758-7.686 38.976v.098zm98.626-8.473c-28.828 1.434-56.465.945-87.49 6.778V279.9h6.463c-22.367-13.263-22.9-32.588-20.673-57.322l21.269-2.151c4.078-3.683-26.194-1.727-26.163-2.672.91 14.73 1.349 29.329 1.694 44.157l-51.665-.424c5.207 7.365 18.037 11.634 18.445 21.345.69 16.914 2.949 34.739-8.658 36.108-17.912 2.086-45.11-1.825-69.578.749-8.595.913-17.347-.684-24.186 0-2.572-57.876-5.929-59.473-4.392 1.043l-12.548-.456c-1.537-64.427-6.556-65.502-6.807 0a812.27 812.27 0 0 0-101.826 5.768l-.69-26.364 14.587-1.271c0-3.258-.533-27.732-.596-30.698-1.757 0-13.332.913-15.371 1.011-7.905 5.083 7.623 4.986 9.944 5.116l2.667 21.41-16.375-.423c-.534-.815-.785-24.898-3.137-23.887-3.137.782-1.287 27.537-2.196 29.655l6.964-.619c-.91 3.421.941 19.976-1.412 23.887s-10.885 4.041-10.885 4.041l1.223-179.529 18.069 4.074c2.165.652 53.109 93.202 56.811 90.66s-45.361-80.916-44.953-83.165c12.548-11.503 26.539-24.082 38.145-36.694 9.411 15.675 21.771 45.917 32.876 59.408-.596-9.027-17.473-36.498-20.547-45.362 21.551 2.737 22.994-5.834 23.715 20.465h2.761l55.022-3.031v8.832l-18.822 1.238c0 2.151.722 11.764.847 14.045l-5.27 1.565v-9.972h-28.233c1.161 2.77.691 25.288 4.173 26.494s.972-19.553 1.662-20.759h18.477l2.008 6.094c2.384-.228 10.697-.782 13.081-1.01 0-1.564.658-10.265.753-12.025 3.67.88 21.3-5.214 19.919 3.259-1.474 3.259 21.959 0 23.088.586l-1.066 8.701 3.137-.26 51.979-4.367c0 1.043.628 7.039.722 7.886 1.537.424 8.815-1.369 8.313 2.053l-19.167-.977c-.345 10.721-.628 9.027-10.164 9.157 0 .293-.251 13.035-.282 13.785l-7.09 1.075c-2.823 2.216 9.882 1.597 10.164 2.086a2583.1 2583.1 0 0 1 .282-13.492l10.572 1.499c0-1.662.816-7.267.972-9.027 1.788.782 17.944-3.258 16.72 1.825l26.163.782c0-1.14.408-7.527.47-7.886h37.581l.408 13.035c-.784.489-15.34 0-14.807 1.988-.941 2.51 23.434.978 24.061 1.597l.22 19.553 7.497-.815-.722 5.996 11.042.424c0 1.467-.47 5.377-.627 6.778h20.296c0 1.565-1.317 42.104-1.349 43.636h19.23l.847 32.881c-2.416-.456-5.145-.619-7.592-.521v.098zM346.668 0v.065L346.574 0h.094z"/><path d="M348.143 1.076l-.126.033.031-.065.095.033zm91.756 149.97c0 3.91-1.192 37.346-1.287 41.191l-27.824-1.238c0 .912 0-28.482 0-28.971 8.03-13.035 4.423 21.867 5.144 23.724l16.971.163c-1.443-27.472 11.544-29.916-20.296-32.946-7.811-6.714 27.198-.783 27.292-1.923zm-1.6 92.681l-.314 50.349c-5.05 0-29.299-.358-34.35-.456 0-1.434-1.035-33.045-.251-35.163 6.745-18.543 6.651 24.93 7.56 27.602l20.328.685 1.851-37.607c-1.851-.554-30.711-.261-18.602-4.465 1.16-.391 23.558-.945 23.778-.945zm141.947-65.372c-2.792-1.467-24.468-.359-22.868-5.116.784-1.793-1.286-15.903 2.541-15.349.494.016.964.227 1.313.59a2.06 2.06 0 0 1 .569 1.365c-.878 14.958 2.478 11.015 13.959 13.557.502-.946-2.196-21.704.377-20.987s3.105 23.887 4.109 25.94zm34.601 21.997l-16.375-.326c0 1.597.533 15.74.596 17.696-7.56 3.78-5.709-16.294-7.372-19.814-4.768-7.658-6.023 4.106-4.705 7.756l-10.289-.293c0 3.096 0 10.2-.22 13.296l11.418-1.141.628 7.952c20.296-2.673 16.312 0 15.246-20.205 2.415 0 19.762.652 11.073-4.921zm-33.754 13.035l-.376-4.203h6.65l.377 4.692-6.651-.489zm-69.075-23.105l-10.823-.685-1.067-20.139h11.356l.534 20.824zm-7.843-3.748l4.611.261-.345-14.078h-4.987l.721 13.817zm38.239 24.995c-12.924-1.467-15.967 4.302-13.426 16.913 19.073-.521 14.744 2.021 15.685-17.011l-2.259.098zm-9.41 12.742a51.7 51.7 0 0 0 0-7.3c2.601-.135 5.191-.461 7.748-.978l.251 8.604-7.999-.326zm31.369 43.57c-2.666-17.499 5.929-24.93-14.994-28.873.815 22.519-6.588 23.268 15.245 33.762l-.251-4.889zm-5.301-4.269c-8.815-1.988-4.549-13.035-6.87-20.498 9.474 1.108 6.744 13.557 6.87 20.368v.13zm94.516-.521c-1.38-1.01-76.887 0-77.2-2.933l63.868-1.597-14.838-10.852c-1.662-.977-51.791 3.813-34.506-6.81 38.585 1.205 32.185-3.455 62.676 22.192zm-63.46 36.401c-2.729-1.271-18.163 0-17.128-4.139.533-.945-.722-15.088 1.663-14.469 4.517 4.53-2.573 14.306 8.846 11.862-.565-3.259-2.384-24.245 4.925-13.524.188 2.868 1.474 17.761 1.694 20.27zm127.957-9.417c-4.737 6.681-3.953-91.996-5.427-91.703-.753-.391-17.348-.489-16.532-2.607 1.443-2.314 19.449-2.021 21.645-2.835l.314 97.145zm-13.238-100.404c1.662 3.259-29.237 3.259-30.053 4.008-2.729 1.271-1.882-6.517-2.666-7.918-3.137.521-28.546 6.517-17.41-3.552 1.788-.229 20.108-1.402 21.425-1.565v9.777c1.224.619 29.582-4.009 28.704-.75zm3.827 16.945c-2.165 30.177 8.752 29.004-18.069 30.731 1.004-2.672 0-19.553 3.137-20.661 2.133-.424 1.819 13.785 2.321 14.73h8.282v-20.27l-10.729-1.564c-5.458-4.4 14.462-2.249 15.058-2.966zm-48.435 13.818c-.502 1.499-22.775 1.173-23.465 1.662l-1.505-16.848c3.889-.326 31.369-4.921 19.072 5.247-8.438 1.238-15.151-4.595-14.461 8.342.596.587 20.484-.097 20.359 1.597zm25.284 2.118v3.259l-.408 40.931c1.098 4.693-5.678 3.617-8.532 3.976-1.036 52.662-6.274 23.757-6.274-6.518 2.352-.195 5.615 0 7.779-.554l2.039-35.684-5.866-.88c-4.925-4.138 9.693-3.65 11.262-4.53zm25.064 81.178c-2.823 0-23.527.554-26.381.651l-.251-25.223c3.137.685 8.124 0 10.603 1.564-1.098 1.662-5.804.75-7.623 1.402l1.004 18.119 18.006-.75c-.251-2.542-3.921-23.072 3.294-13.85l1.348 18.087zm1.883-38.553c-.691 1.01.501 17.174-3.137 12.449l-.628-8.506c-.878-.488-15.685 1.304-15.151-1.14s16.971-1.956 18.916-2.803zm92.258-30.99c-10.384 1.303-21.269-.619-16.595 13.459 1.631 0 16.72-.326 18.289-.359 0-2.509.219-10.754.251-13.263l-1.945.163zm-14.462 10.884a65.82 65.82 0 0 0-.627-6.517c4.643 0 9.066-.261 13.52-.587v6.224l-12.893.88zm-45.203-2.999c-6.086.456-12.329-.326-18.195.261 1.255-5.019 3.796-24.213 4.988-5.052 11.544 2.738 6.995-5.051 10.948-11.275 2.447 3.78 1.537 10.852 2.259 16.066zm19.637 2.574l-1.286-13.329c-10.133 1.662-15.685 4.497-12.799 15.969l14.336-.261-.251-2.379zm-10.101-3.552c-.22-1.499-.565-2.998-.941-4.595 2.007-.163 3.858-.359 5.615-.619l.941 5.312-5.615-.098zm-137.744-33.988l1.317 14.274c-6.085 13.915-6.744-23.236-1.317-14.274zm143.233 13.751l-22.774-1.499c.471-6.518 3.137-23.757 5.333-5.377 13.363.912 10.665-.489 11.607-12.677l-7.404.228c-4.423-2.802 9.756-3.259 10.446-3.813l2.792 23.138zm85.2 32.914h-19.731l-.314-8.016-6.744.717-.753 16.098 7.121-1.466c0 3.617.313 22.486.439 26.07-2.573-.228-8.69-.912-11.262-1.173.502-1.336-1.38-13.752.627-14.208 1.443-.489 1.851 10.395 2.259 10.982 6.556 2.477 2.949-14.534 3.984-17.304l-5.521-.294c0-2.085-.941-20.791-1.035-22.811 2.886-.261 11.826-.88 14.712-1.108 0 1.433-.314 7.462-.376 8.994 16.531.391 12.046-2.281 13.645-16.49-1.003-.554-24.342 3.683-22.993.782-.44-8.831-2.855-3.258-5.27-6.973.501-2.119 5.521-1.108 7.058-1.662 0 1.01.533 5.898.658 7.006l22.9-1.76c.126 2.444.502 20.433.596 22.616zm13.05 23.562c.753 2.901-17.724 2.868-18.822 3.618l-1.537 7.267 7.466.978 1.506 13.296-23.998-.196c0-.88-1.129-8.864-1.286-9.939 3.451-8.245 5.49 3.258 4.266 6.517l16.407-.88v-5.735c-1.694 0-7.968 0-9.411.195l1.694-17.271c2.447 1.108 22.837-1.63 23.715 2.15zm1.569-10.265c-8.47 1.531-23.59-1.141-4.517-4.074-.094-18.999 4.517-4.399 4.517 4.074z"/></g></svg>